<svg xmlns="http://www.w3.org/2000/svg" viewBox="103.52 30.37 1121.59 309.59"><g transform="translate(0 414) scale(.1 -.1)" fill="#38b137" stroke="none"><path d="M2415 3831c-132-13-341-70-475-129-300-132-598-420-737-712-74-154-120-286-141-405-72-395 2-789 211-1125 57-91 203-270 221-270 15 0 48 35 65 68 7 12 43 63 81 113 39 50 70 95 70 99 0 5 20 32 44 62 50 62 116 162 116 178 0 6-38 10-102 10-121 0-178 8-178 24 0 11 64 106 192 285 26 36 68 95 93 131 85 121 160 227 205 289 25 34 70 97 101 140 68 94 82 118 74 131-4 6-64 10-141 10-121 0-134 2-134 18 0 9 52 89 115 177 62 88 133 188 157 223 24 34 50 70 58 81 8 10 76 105 150 210 74 106 166 233 203 283 45 61 64 95 58 101-13 13-202 18-306 8z"/><path d="M3670 3294c-43-35-415-318-469-358-40-30-81-69-81-78 0-4 99-8 220-8 176 0 220-3 220-13 0-8-102-90-227-183-125-93-241-181-257-196-17-16-34-28-38-28-4 0-30-19-58-42-76-65-136-112-229-181-161-119-187-138-310-235-69-53-125-101-125-107-1-6 60-12 154-15 94-3 155-9 155-15-1-5-52-49-115-98-63-48-146-111-184-140-37-28-73-57-80-62-6-6-105-82-221-169-218-165-250-190-300-230-16-13-41-33-55-45-33-26-23-43 61-99 133-90 347-180 534-224 108-25 434-37 525-19 30 6 82 16 115 21 188 32 464 166 659 318 306 241 516 629 558 1032 13 128 5 346-17 458-25 129-101 348-152 437-92 161-204 315-230 315-4 0-28-16-53-36z"/><path d="M5195 2995c-166-25-259-64-340-141-102-96-135-299-72-436 45-100 161-184 285-208 26-5 60-13 75-19 16-6 95-11 177-11 154 0 284-18 328-46 60-38 49-109-22-147-39-21-52-22-301-21-186 0-266 4-283 12-12 7-52 15-90 18-37 3-93 12-126 21-82 23-86 16-86-148 0-107 3-130 18-146 13-15 51-26 162-44 128-21 177-24 415-24 254 0 275 1 355 24 171 48 278 132 316 249 27 82 25 239-4 305-44 98-170 190-300 218-114 25-145 28-280 28-230 1-325 34-325 111 0 39 24 65 82 87 65 25 444 25 537 0 34-10 78-17 98-17 19 0 54-7 76-16 68-27 70-24 70 139 0 120-3 147-16 158-17 14-106 31-279 64-132 17-360 17-470 0z"/><path d="M6575 2994c-196-14-265-23-282-37-18-14-19-1247-1-1265 15-15 281-17 309-2 17 10 19 23 19 165 0 143 1 155 20 165 13 7 33 7 62 0 68-15 461-13 541 4 152 32 250 103 309 224l32 67 0 195 0 195-31 60c-69 134-178 201-380 235-76 13-371 10-598-6zm600-321c55-30 68-55 73-149 7-138-26-177-178-204-43-8-111-10-205-5-161 7-224 17-236 36-12 19-11 300 1 319 13 21 97 28 315 26 173-1 193-3 230-23z"/><path d="M9630 2994c-167-12-275-25-285-36-3-3-5-285-5-627-1-460 2-627 11-637 15-19 299-20 317-2 9 9 12 68 12 205 0 146 3 195 13 198 6 3 95 1 197-3l185-7 40-60c22-33 74-114 115-180 109-176 91-165 264-165 207 0 212 9 103 182-34 54-67 106-72 116-6 9-27 43-48 75-20 31-37 63-37 70 0 7 24 30 53 51 110 80 147 171 149 371 2 159-19 236-84 309-126 144-369 181-928 140zm610-318c51-28 59-44 60-113 0-104-23-129-137-153-63-13-397-9-455 6l-28 6 0 123c0 87 4 126 13 133 18 15 93 19 317 18 171-1 199-4 230-20z"/><path d="M8212 2958c-11-14-92-174-92-182 0-2-40-88-90-191-49-103-90-188-90-190 0-2-29-64-64-137-140-292-184-385-210-440-18-39-26-70-24-95l3-38 140-2c99-2 145 1 156 10 8 6 35 55 59 107 23 52 47 101 53 108 7 9 86 12 333 12l324 0 14-22c8-13 31-61 52-108 21-47 44-91 53-97 10-9 55-13 143-13 116 0 130 2 149 21 28 28 30 22-85 262-42 87-76 159-76 161 0 4-68 149-177 376-31 63-68 142-83 175-87 187-124 262-138 278-13 15-35 17-177 17-118 0-165-3-173-12zm184-326c15-10 174-368 174-393 0-18-9-19-180-19-150 0-182 3-186 15-3 8 26 87 66 175 39 89 78 177 86 196 15 35 21 39 40 26z"/><path d="M10922 2953c-4-10-10-293-11-629-2-557-1-612 14-627 14-14 39-17 156-17 78 0 149 5 160 10 18 10 19 23 19 231 0 200 2 220 18 227 9 4 64 7 121 7l103 0 42-46c53-59 111-126 240-279 59-69 119-130 134-137 34-15 285-17 313-3 10 6 19 20 19 32 0 27-32 68-274 358-107 129-196 241-196 248 0 11 71 99 412 506 60 72 75 117 42 130-9 3-85 6-169 6l-153 0-30-32c-35-39-62-71-242-291-74-91-144-168-155-171-38-11-201-6-213 6-9 9-12 77-12 244 0 202-2 233-16 238-9 3-83 6-164 6-132 0-150-2-158-17z"/></g></svg>