<svg xmlns="http://www.w3.org/2000/svg" viewBox="103.52 30.37 309.31 309.59">   <g transform="translate(0 414) scale(.1 -.1)" fill="#38b137" stroke="none">     <path d="M2415 3831c-132-13-341-70-475-129-300-132-598-420-737-712-74-154-120-286-141-405-72-395 2-789 211-1125 57-91 203-270 221-270 15 0 48 35 65 68 7 12 43 63 81 113 39 50 70 95 70 99 0 5 20 32 44 62 50 62 116 162 116 178 0 6-38 10-102 10-121 0-178 8-178 24 0 11 64 106 192 285 26 36 68 95 93 131 85 121 160 227 205 289 25 34 70 97 101 140 68 94 82 118 74 131-4 6-64 10-141 10-121 0-134 2-134 18 0 9 52 89 115 177 62 88 133 188 157 223 24 34 50 70 58 81 8 10 76 105 150 210 74 106 166 233 203 283 45 61 64 95 58 101-13 13-202 18-306 8z"/>     <path d="M3670 3294c-43-35-415-318-469-358-40-30-81-69-81-78 0-4 99-8 220-8 176 0 220-3 220-13 0-8-102-90-227-183-125-93-241-181-257-196-17-16-34-28-38-28-4 0-30-19-58-42-76-65-136-112-229-181-161-119-187-138-310-235-69-53-125-101-125-107-1-6 60-12 154-15 94-3 155-9 155-15-1-5-52-49-115-98-63-48-146-111-184-140-37-28-73-57-80-62-6-6-105-82-221-169-218-165-250-190-300-230-16-13-41-33-55-45-33-26-23-43 61-99 133-90 347-180 534-224 108-25 434-37 525-19 30 6 82 16 115 21 188 32 464 166 659 318 306 241 516 629 558 1032 13 128 5 346-17 458-25 129-101 348-152 437-92 161-204 315-230 315-4 0-28-16-53-36z"/>   </g> </svg>